HIERARCHY
ROOT Hips
{
	OFFSET -0.001795 -0.223333 0.028219
	CHANNELS 6 Xposition Yposition Zposition Zrotation Yrotation Xrotation
	JOINT LeftUpLeg
	{
		OFFSET 0.069520 -0.091406 -0.006815
		CHANNELS 3 Zrotation Yrotation Xrotation
		JOINT LeftLeg
		{
			OFFSET 0.034277 -0.375199 -0.004496
			CHANNELS 3 Zrotation Yrotation Xrotation
			JOINT LeftFoot
			{
				OFFSET -0.013596 -0.397961 -0.043693
				CHANNELS 3 Zrotation Yrotation Xrotation
				JOINT LeftToe
				{
					OFFSET 0.026358 -0.055791 0.119288
					CHANNELS 3 Zrotation Yrotation Xrotation
					End Site
					{
						OFFSET 0.000000 0.000000 0.000000
					}
				}
			}
		}
	}
	JOINT RightUpLeg
	{
		OFFSET -0.067670 -0.090522 -0.004320
		CHANNELS 3 Zrotation Yrotation Xrotation
		JOINT RightLeg
		{
			OFFSET -0.038290 -0.382569 -0.008850
			CHANNELS 3 Zrotation Yrotation Xrotation
			JOINT RightFoot
			{
				OFFSET 0.015774 -0.398415 -0.042312
				CHANNELS 3 Zrotation Yrotation Xrotation
				JOINT RightToe
				{
					OFFSET -0.025372 -0.048144 0.123348
					CHANNELS 3 Zrotation Yrotation Xrotation
					End Site
					{
						OFFSET 0.000000 0.000000 0.000000
					}
				}
			}
		}
	}
	JOINT Spine
	{
		OFFSET -0.002533 0.108963 -0.026696
		CHANNELS 3 Zrotation Yrotation Xrotation
		JOINT Spine1
		{
			OFFSET 0.005487 0.135180 0.001092
			CHANNELS 3 Zrotation Yrotation Xrotation
			JOINT Spine2
			{
				OFFSET 0.001457 0.052922 0.025425
				CHANNELS 3 Zrotation Yrotation Xrotation
				JOINT Neck
				{
					OFFSET -0.002778 0.213870 -0.042857
					CHANNELS 3 Zrotation Yrotation Xrotation
					JOINT Head
					{
						OFFSET 0.005152 0.064970 0.051349
						CHANNELS 3 Zrotation Yrotation Xrotation
						End Site
						{
							OFFSET 0.000000 0.000000 0.000000
						}
					}
				}
				JOINT LeftShoulder
				{
					OFFSET 0.078845 0.121749 -0.034090
					CHANNELS 3 Zrotation Yrotation Xrotation
					JOINT LeftArm
					{
						OFFSET 0.090977 0.030469 -0.008868
						CHANNELS 3 Zrotation Yrotation Xrotation
						JOINT LeftForeArm
						{
							OFFSET 0.259612 -0.012772 -0.027456
							CHANNELS 3 Zrotation Yrotation Xrotation
							JOINT LeftHand
							{
								OFFSET 0.249234 0.008986 -0.001171
								CHANNELS 3 Zrotation Yrotation Xrotation
								End Site
								{
									OFFSET 0.000000 0.000000 0.000000
								}
							}
						}
					}
				}
				JOINT RightShoulder
				{
					OFFSET -0.081759 0.118833 -0.038615
					CHANNELS 3 Zrotation Yrotation Xrotation
					JOINT RightArm
					{
						OFFSET -0.096012 0.032551 -0.009143
						CHANNELS 3 Zrotation Yrotation Xrotation
						JOINT RightForeArm
						{
							OFFSET -0.253742 -0.013329 -0.021401
							CHANNELS 3 Zrotation Yrotation Xrotation
							JOINT RightHand
							{
								OFFSET -0.255298 0.007772 -0.005559
								CHANNELS 3 Zrotation Yrotation Xrotation
								End Site
								{
									OFFSET 0.000000 0.000000 0.000000
								}
							}
						}
					}
				}
			}
		}
	}
}
MOTION
Frames: 9
Frame Time: 0.050000
0.000000 0.961882 0.000000 0.493370 -5.423678 -4.825538 -1.621720 0.213423 1.985675 -0.058212 -0.114678 4.284523 -2.444276 -1.471125 8.473709 0.000000 0.000000 0.000000 2.788687 -0.948500 7.695105 -0.542957 -0.008705 -1.360324 3.247680 1.581029 9.830246 0.000000 0.000000 0.000000 6.653310 -1.397124 15.596722 -11.644786 3.135231 -27.902988 1.788883 5.921788 27.280719 10.446858 -8.080068 -8.721205 0.000000 0.000000 0.000000 -27.761480 -10.491825 4.253568 -46.671458 -4.247433 -6.316284 0.683478 -25.485667 1.026194 0.000000 0.000000 0.000000 35.266170 -1.363385 -2.223127 50.901801 6.204782 -5.516888 0.150766 27.705494 1.576264 0.000000 0.000000 0.000000
0.001088 0.960935 0.002688 0.417980 -5.553128 -4.517647 -1.346304 0.193471 1.830215 -0.795965 -0.001383 4.569507 -1.983067 -1.000117 7.550668 0.000000 0.000000 0.000000 2.972297 -0.954822 7.598667 -0.626702 -0.006955 -1.476474 2.884271 1.025300 9.461953 0.000000 0.000000 0.000000 6.925490 -1.360998 14.744788 -13.156701 3.519232 -27.384941 2.576280 5.574974 27.414422 10.177282 -7.727164 -9.455227 0.000000 0.000000 0.000000 -27.965013 -10.330306 4.322578 -46.563743 -4.402466 -6.303448 2.315189 -25.656283 0.698842 0.000000 0.000000 0.000000 36.037443 -1.009460 -2.222740 51.517422 6.165764 -5.530494 -1.214504 28.082070 1.294042 0.000000 0.000000 0.000000
0.001796 0.960448 0.005322 0.858287 -5.260730 -4.354525 -1.455120 0.139132 1.317586 -1.037202 0.026301 5.155001 -2.811447 -2.353487 7.908131 0.000000 0.000000 0.000000 2.611132 -0.944274 7.769996 -0.713124 -0.015627 -1.837969 2.460103 0.358211 9.149780 0.000000 0.000000 0.000000 6.673382 -1.304000 14.363508 -14.040096 3.716313 -27.535194 3.167669 4.799279 27.804023 9.286714 -7.304159 -8.368720 0.000000 0.000000 0.000000 -28.873140 -9.931389 4.339408 -45.134569 -4.358276 -6.265454 1.156325 -25.191178 0.940532 0.000000 0.000000 0.000000 36.061319 -0.781451 -2.346668 50.058109 5.510846 -5.641926 0.189267 27.468487 1.502319 0.000000 0.000000 0.000000
0.002245 0.960730 0.008275 0.973199 -5.722316 -4.723472 -1.882000 0.173631 1.603401 -0.869577 -0.007429 5.717745 -2.252936 -1.420640 7.797347 0.000000 0.000000 0.000000 2.428893 -0.958294 8.123380 -0.219556 -0.063546 -2.023770 1.994899 -1.073382 9.973859 0.000000 0.000000 0.000000 6.662940 -1.319022 14.731750 -14.385649 3.751670 -28.042049 3.369157 5.585498 28.933509 9.895322 -7.862308 -8.270052 0.000000 0.000000 0.000000 -29.015294 -10.141204 4.338246 -45.700298 -4.218518 -6.450458 2.642861 -26.109008 0.660239 0.000000 0.000000 0.000000 36.616322 -0.857380 -2.136968 49.985233 5.944481 -5.683559 0.130120 27.820833 1.565615 0.000000 0.000000 0.000000
0.002485 0.960756 0.010933 0.841794 -6.132792 -4.868902 -1.820587 0.147195 1.383583 -0.845791 -0.018888 6.439528 -2.035367 -0.899227 8.217726 0.000000 0.000000 0.000000 2.465553 -0.954905 8.108589 -0.158528 -0.064113 -1.914197 2.206674 -1.119977 10.798459 0.000000 0.000000 0.000000 6.600382 -1.343951 15.227492 -13.720952 3.664653 -27.186301 2.866068 6.363935 27.961540 10.103513 -8.037094 -7.729331 0.000000 0.000000 0.000000 -29.093546 -9.814195 3.850859 -45.712796 -3.528219 -6.529409 2.785559 -26.612383 0.612087 0.000000 0.000000 0.000000 37.029349 -0.641678 -1.818282 49.236824 5.684890 -5.692358 -0.025884 27.742888 1.511010 0.000000 0.000000 0.000000
0.002523 0.960494 0.013325 0.800575 -6.247725 -5.019718 -1.777002 0.109498 1.056942 -1.240914 0.043272 7.502650 -1.447861 0.123900 8.111689 0.000000 0.000000 0.000000 2.531878 -0.956996 8.089425 0.133340 -0.060957 -1.224247 1.647831 -1.984009 10.284072 0.000000 0.000000 0.000000 6.460903 -1.400673 16.206426 -13.715598 3.542358 -28.542936 3.104692 6.358636 28.862047 10.493019 -8.150017 -8.951884 0.000000 0.000000 0.000000 -28.735923 -9.586158 3.782330 -46.285412 -3.693917 -6.667153 2.834948 -27.082348 0.642376 0.000000 0.000000 0.000000 36.636907 -0.562275 -1.707881 49.258445 5.616494 -5.808218 0.231073 27.237675 1.535251 0.000000 0.000000 0.000000
0.002558 0.959933 0.015479 0.709517 -6.447256 -5.071633 -1.712777 0.024078 0.296521 -1.424086 0.071484 9.089300 -1.027417 0.847302 8.037379 0.000000 0.000000 0.000000 2.599839 -0.932880 7.824649 0.208186 -0.052943 -0.848672 1.585106 -2.382041 10.804558 0.000000 0.000000 0.000000 6.447258 -1.455326 16.995251 -13.224067 3.431633 -28.541492 2.787804 6.400502 28.915455 10.481217 -8.102274 -9.149216 0.000000 0.000000 0.000000 -29.064085 -9.350555 3.659098 -46.136869 -3.543372 -6.710544 2.949454 -27.412756 0.630641 0.000000 0.000000 0.000000 36.491305 -0.227958 -1.471678 49.051580 5.686837 -5.758449 0.345305 27.253440 1.549579 0.000000 0.000000 0.000000
0.002710 0.959309 0.017622 0.564543 -6.554772 -4.968558 -1.668622 -0.120942 -1.029556 -1.586242 0.103512 11.534298 -0.480548 1.707523 7.634133 0.000000 0.000000 0.000000 2.744865 -0.864391 7.069782 0.233052 -0.013465 0.219963 1.464931 -2.735703 11.028236 0.000000 0.000000 0.000000 6.286583 -1.556908 18.632678 -13.160868 3.315829 -29.673996 3.123268 6.033319 29.495252 10.711327 -8.311233 -9.515495 0.000000 0.000000 0.000000 -29.455810 -9.517392 3.961215 -46.114660 -3.757832 -6.736360 3.028481 -28.199937 0.663190 0.000000 0.000000 0.000000 36.097780 0.293378 -1.204243 48.719383 6.012988 -5.613740 0.484672 27.149704 1.548417 0.000000 0.000000 0.000000
0.002973 0.958478 0.020151 0.524367 -6.922798 -4.791355 -1.723873 -0.291967 -2.605009 -1.834977 0.183450 13.757032 0.196365 3.161810 8.496324 0.000000 0.000000 0.000000 2.711044 -0.772344 6.261014 0.236887 0.036020 1.433882 1.536762 -2.547706 10.809722 0.000000 0.000000 0.000000 6.231142 -1.649988 20.141343 -12.972612 3.176327 -30.667788 3.114861 5.921714 30.061967 11.133674 -8.466306 -10.767285 0.000000 0.000000 0.000000 -29.741171 -9.609555 4.191028 -46.106661 -4.396290 -6.618748 3.528641 -28.733522 0.586939 0.000000 0.000000 0.000000 35.949108 0.535944 -1.115187 48.080767 6.626785 -5.369060 0.550008 27.054250 1.539539 0.000000 0.000000 0.000000
